<?xml version="1.0" encoding="UTF-8"?> <svg xmlns="http://www.w3.org/2000/svg" xmlns:xlink="http://www.w3.org/1999/xlink" id="Layer_1" data-name="Layer 1" version="1.1" viewBox="0 0 288.8 170.4"><defs><style> .cls-1 { fill: url(#linear-gradient); stroke-width: 0px; } </style><linearGradient id="linear-gradient" x1="144.4" y1="170.4" x2="144.4" y2="0" gradientUnits="userSpaceOnUse"><stop offset="0" stop-color="#8626f1"></stop><stop offset="1" stop-color="#ee4166"></stop></linearGradient></defs><path class="cls-1" d="M74.1,26.2v-13.1h-6.6v-6.6h-13.1V0H21.6v6.6h-6.6v45.9h6.6v19.7h6.6v6.6h13.1v-6.6h6.6v-13.1h19.7v-6.6h6.6v-6.6h6.6v-19.7h-6.6ZM54.4,39.4h-13.1v-6.6h-6.6v-13.1h13.1v6.6h6.6v13.1ZM126.6,59.1v-6.6h-13.1v-13.1h6.6v-13.1h6.6V6.6h-6.6V0h-13.1v6.6h-6.6v13.1h-6.6v19.7h-6.6v32.8h6.6v6.6h32.8v-6.6h6.6v-13.1h-6.6ZM277.5,6.6V0h-13.1v6.6h-6.6v13.1h-6.6v-6.6h-6.6v-6.6h-19.7v6.6h-6.6v13.1h6.6v6.6h6.6v6.6h6.6v6.6h6.6v6.6h-6.6v19.7h6.6v6.6h13.1v-6.6h6.6v-13.1h6.6v-13.1h6.6v-13.1h6.6V6.6h-6.6ZM59.1,144.2v-6.6h-13.1v6.6h-13.1v-6.6h-6.6v-13.1h6.6v-6.6h19.7v-6.6h6.6v-13.1h-6.6v-6.6h-26.2v6.6h-13.1v6.6h-6.6v13.1H0v26.2h6.6v13.1h6.6v6.6h13.1v6.6h26.2v-6.6h13.1v-19.7h-6.6ZM137.8,111.4v-13.1h-6.6v-6.6h-26.2v6.6h-6.6v6.6h-6.6v6.6h-6.6v13.1h-6.6v13.1h-6.6v19.7h6.6v6.6h13.1v-6.6h6.6v-6.6h13.1v6.6h6.6v6.6h6.6v6.6h13.1v-6.6h6.6v-52.5h-6.6ZM124.7,137.6h-6.6v-6.6h-13.1v-6.6h6.6v-6.6h13.1v19.7ZM210,137.6v-6.6h-6.6v-6.6h-13.1v-6.6h-6.6v-6.6h6.6v6.6h13.1v-6.6h6.6v-13.1h-6.6v-6.6h-32.8v6.6h-6.6v6.6h-6.6v19.7h6.6v6.6h6.6v6.6h13.1v6.6h-13.1v-6.6h-13.1v6.6h-6.6v19.7h6.6v6.6h39.4v-6.6h13.1v-6.6h6.6v-19.7h-6.6ZM282.2,98.2v-6.6h-39.4v6.6h-6.6v13.1h-6.6v19.7h-6.6v32.8h6.6v6.6h45.9v-6.6h6.6v-13.1h-32.8v-6.6h19.7v-6.6h6.6v-13.1h-19.7v-6.6h26.2v-6.6h6.6v-13.1h-6.6ZM205.3,19.7V6.6h-6.6V0h-45.9v8.1h-6.6v11.6h-6.6v52.5h6.6v6.6h59.1v-6.6h6.6V19.7h-6.6ZM171.6,62.7h-6.6v6.6h-6.6v-6.6h-6.6v-6.6h6.6v-6.6h6.6v6.6h6.6v6.6ZM187.1,62.7h-6.6v-6.6h6.6v6.6ZM199.8,56.1h-6.6v-6.6h6.6v6.6ZM199.8,39.4h-47.9v-19.7h6.6v-6.9h32.8v6.9h8.5v19.7Z"></path></svg> 